<svg fill="none" height="512" viewBox="0 0 20 20" width="512" xmlns="http://www.w3.org/2000/svg"><path clip-rule="evenodd" d="m11.3787 0c.3978 0 .7793.158035 1.0606.439339l4.1214 4.121321c.2813.2813.4393.66284.4393 1.06066v12.87868c0 .8284-.6716 1.5-1.5 1.5h-11c-.82843 0-1.5-.6716-1.5-1.5v-17c0-.828427.67157-1.5 1.5-1.5zm-1.3787 14c-.55228 0-1-.4477-1-1v-2h-2c-.55228 0-1-.4477-1-1 0-.55228.44772-1 1-1h2v-2c0-.55228.44771-1 1-1 .5523 0 1 .44772 1 1v2h2c.5523 0 1 .44772 1 1 0 .5523-.4477 1-1 1h-2v2c0 .5523-.4477 1-1 1z" fill="rgb(0,0,0)" fill-rule="evenodd"/></svg>