<?xml version="1.0"?>
<svg xmlns="http://www.w3.org/2000/svg" xmlns:xlink="http://www.w3.org/1999/xlink" xmlns:svgjs="http://svgjs.com/svgjs" version="1.1" width="512" height="512" x="0" y="0" viewBox="0 0 512 512" style="enable-background:new 0 0 512 512" xml:space="preserve" class=""><g><path xmlns="http://www.w3.org/2000/svg" d="m175.668 198.699c-13.877 0-25.168 11.29-25.168 25.167s11.291 25.167 25.168 25.167 25.166-11.29 25.166-25.167-11.289-25.167-25.166-25.167z" fill="#5865f2" data-original="#000000" class=""/><path xmlns="http://www.w3.org/2000/svg" d="m336.332 198.699c-13.877 0-25.166 11.29-25.166 25.167s11.289 25.167 25.166 25.167 25.166-11.29 25.166-25.167-11.289-25.167-25.166-25.167z" fill="#5865f2" data-original="#000000" class=""/><path xmlns="http://www.w3.org/2000/svg" d="m408.619 63.216c-40.765-40.766-94.967-63.216-152.619-63.216-57.65 0-111.852 22.45-152.617 63.216-40.765 40.767-63.217 94.966-63.217 152.617v241c0 30.419 24.748 55.167 55.168 55.167s55.166-24.748 55.166-55.167c0-13.877 11.289-25.167 25.166-25.167s25.168 11.29 25.168 25.167c0 30.419 24.748 55.167 55.166 55.167s55.166-24.748 55.166-55.167c0-13.877 11.291-25.167 25.168-25.167s25.166 11.29 25.166 25.167c0 30.419 24.748 55.167 55.166 55.167 30.42 0 55.168-24.748 55.168-55.167v-241c0-57.651-22.449-111.853-63.215-152.617zm-232.951 215.817c-30.42 0-55.168-24.748-55.168-55.167s24.748-55.167 55.168-55.167 55.166 24.748 55.166 55.167-24.746 55.167-55.166 55.167zm160.664 0c-30.418 0-55.166-24.748-55.166-55.167s24.748-55.167 55.166-55.167c30.42 0 55.166 24.748 55.166 55.167s-24.746 55.167-55.166 55.167z" fill="#5865f2" data-original="#000000" class=""/></g></svg>
